# xmcd
#
# Track frame offsets:
#	150
#	10009
#	21239
#	36828
#	49819
#	62273
#	77966
#	89597
#	102258
#	118050
#	129346
#	145674
#	157044
#
# Disc length: 2233 seconds
# Revision: 0
# Processed by: cddbd v1.5.2PL0 Copyright (c) Steve Scherf et al.
# Submitted via: dBpowerAMP V12.0
#
DISCID=a508b70d
DTITLE=Junior Sisk and Joe Mullins - Hall Of Fame Bluegrass!
DYEAR=2013
DGENRE=Country
TTITLE0=Wild Mountain Honey
TTITLE1=The Bluebirds Are Singing For Me
TTITLE2=I'll Be There, Mary Dear
TTITLE3=Brand New Shoes
TTITLE4=I'll Drink No More Wine
TTITLE5=I'll Never Make You Blue
TTITLE6=I'm So Happy
TTITLE7=No Blind Ones There
TTITLE8=Greenville Trestle High
TTITLE9=Don't Let My Love Get In The Way
TTITLE10=Single Girl, Married Girl
TTITLE11=No Doubt About It
TTITLE12=They Can't Love Jesus More Than Me
EXTD=
EXTT0=
EXTT1=
EXTT2=
EXTT3=
EXTT4=
EXTT5=
EXTT6=
EXTT7=
EXTT8=
EXTT9=
EXTT10=
EXTT11=
EXTT12=
PLAYORDER=
